<!-- icon666.com - MILLIONS vector ICONS FREE --><svg id="Layer_1" enable-background="new 0 0 124 124" viewBox="0 0 124 124" xmlns="http://www.w3.org/2000/svg"><g fill="#cccde1"><path d="m62 92.185c-1.104 0-2-.896-2-2v-18.165c0-1.104.896-2 2-2s2 .896 2 2v18.165c0 1.104-.896 2-2 2z"></path><path d="m22.91 92.185c-1.104 0-2-.896-2-2v-17.43c0-1.104.896-2 2-2s2 .896 2 2v17.43c0 1.104-.896 2-2 2z"></path><path d="m101.09 92.185c-1.104 0-2-.896-2-2v-18.165c0-1.104.896-2 2-2s2 .896 2 2v18.165c0 1.104-.895 2-2 2z"></path><path d="m49.811 105.592h-14.712c-1.104 0-2-.896-2-2s.896-2 2-2h14.711c1.104 0 2 .896 2 2s-.895 2-1.999 2z"></path><path d="m87.868 105.592h-13.193c-1.104 0-2-.896-2-2s.896-2 2-2h13.192c1.104 0 2 .896 2 2s-.895 2-1.999 2z"></path><path d="m62 50.317c-1.104 0-2-.896-2-2v-15.786c0-1.104.896-2 2-2s2 .896 2 2v15.786c0 1.105-.896 2-2 2z"></path></g><path d="m30.559 7h62.882v25.531h-62.882z" fill="#284e51"></path><path d="m0 47.28h124v25.475h-124z" fill="#38e3d4"></path><path d="m9.687 90.185h26.445v26.815h-26.445z" fill="#b8c2d5"></path><path d="m48.777 90.185h26.445v26.815h-26.445z" fill="#b8c2d5"></path><path d="m87.868 90.185h26.445v26.815h-26.445z" fill="#b8c2d5"></path></svg>