<?xml version="1.0" ?><svg viewBox="0 0 512 512" xmlns="http://www.w3.org/2000/svg"><defs><style>.cls-1{fill:#0071af;}.cls-2{fill:#bdecdc;}.cls-3{fill:#a1c9bc;}.cls-4{fill:#59cea7;}.cls-5{fill:#4cb08e;}.cls-6{fill:#31c292;}.cls-7{fill:#338dbf;}.cls-8{fill:#353535;}.cls-9{fill:#cbe2ef;}.cls-10{fill:#2c78a3;}.cls-11{fill:#2d2d2d;}</style></defs><title/><g data-name="/ FLAT" id="_FLAT"><rect class="cls-1" height="344" rx="32" width="408" x="24" y="144"/><path class="cls-2" d="M427.31372,75.31372,380.68628,28.68628A15.99983,15.99983,0,0,0,369.37256,24H192a16,16,0,0,0-16,16V224H432V86.62738A16.0002,16.0002,0,0,0,427.31372,75.31372Z"/><path class="cls-3" d="M425.53516,73.53546C403.69019,155.5636,328.90857,216,240,216H431.99976V86.62738a16.00024,16.00024,0,0,0-4.68628-11.31366Z"/><rect class="cls-4" height="16" width="40" x="368" y="136"/><rect class="cls-5" height="16" width="40" x="368" y="176"/><path class="cls-4" d="M427.31372,75.31372,380.68628,28.68628A15.99983,15.99983,0,0,0,369.37256,24H368V64a16,16,0,0,0,16,16h46.5437A15.97829,15.97829,0,0,0,427.31372,75.31372Z"/><path class="cls-4" d="M363.31372,75.31372,316.68628,28.68628A15.99983,15.99983,0,0,0,305.37256,24H128a16,16,0,0,0-16,16V224H368V86.62738A16.0002,16.0002,0,0,0,363.31372,75.31372Z"/><rect class="cls-2" height="16" width="160" x="136" y="96"/><rect class="cls-2" height="16" width="208" x="136" y="136"/><rect class="cls-2" height="16" width="208" x="136" y="176"/><rect class="cls-2" height="16" width="144" x="136" y="56"/><path class="cls-6" d="M363.31372,75.31372,316.68628,28.68628A15.99983,15.99983,0,0,0,305.37256,24H304V64a16,16,0,0,0,16,16h46.5437A15.97829,15.97829,0,0,0,363.31372,75.31372Z"/><path class="cls-7" d="M440,216H120a32,32,0,0,0-32,32V456a32,32,0,0,1-32,32H440a32,32,0,0,0,32-32V248A32,32,0,0,0,440,216Z"/><path class="cls-8" d="M455.99963,379.56592V356.43408l-22.1-5.29883c-3.09375-7.46606-4.274-10.31421-7.36792-17.78027l11.91907-19.45044c-8.83985-8.83984-7.51551-7.5155-16.35535-16.35547l-19.45081,11.91907-17.78015-7.368L379.56555,280H356.43384l-5.29895,22.09985c-7.46594,3.09388-10.31433,4.27417-17.78015,7.36792L313.9043,297.54883c-8.84,8.83984-7.51563,7.5155-16.35547,16.35534L309.46777,333.355c-3.09375,7.46582-4.27417,10.31421-7.36792,17.78l-22.10009,5.29907v23.13184l22.09985,5.29883c3.09375,7.46606,4.27417,10.31421,7.36792,17.78027l-11.91895,19.45044c8.83973,8.83984,7.51538,7.5155,16.35523,16.35547l19.4508-11.919c7.466,3.09375,10.31434,4.27405,17.78016,7.36792L356.43384,456h23.13159l5.29907-22.09985c7.46582-3.09388,10.31421-4.27417,17.78015-7.36792L422.095,438.45117c8.84-8.83984,7.51563-7.5155,16.35547-16.35534L426.53149,402.645c3.09388-7.46582,4.27417-10.31421,7.36792-17.78ZM368,400a32,32,0,1,1,32-32A32,32,0,0,1,368,400Z"/><path class="cls-9" d="M250.65381,419.20264a128.12772,128.12772,0,0,1,66.14307-168.54883l6.40624,14.66211a112.12661,112.12661,0,0,0-57.8872,147.48144Z"/><path class="cls-9" d="M338.12891,260.02539l-4.25782-15.42285a127.84568,127.84568,0,0,1,17.07276-3.4751l2.1123,15.86035A111.73415,111.73415,0,0,0,338.12891,260.02539Z"/><path class="cls-10" d="M200,488H439.99976a32.00018,32.00018,0,0,0,32-32V248a32.03994,32.03994,0,0,0-1.05219-8.15479C458.86774,378.897,342.18488,488,200,488Z"/><path class="cls-5" d="M361.5354,73.53546C339.69043,155.5636,264.90881,216,176.00024,216H368V86.62738a16.0002,16.0002,0,0,0-4.68628-11.31366Z"/><path class="cls-3" d="M344,152V136H331.94482a192.90661,192.90661,0,0,1-12.84912,16Z"/><path class="cls-3" d="M269.00061,192H344V176H293.29883A192.239,192.239,0,0,1,269.00061,192Z"/><path class="cls-5" d="M408,152V136H395.94458a192.90867,192.90867,0,0,1-12.84912,16Z"/><path class="cls-11" d="M352.83789,441.00293,356.43384,456h23.13159l5.29907-22.09985c7.46582-3.09388,10.31421-4.27417,17.78015-7.36792L422.095,438.45117c8.84-8.83984,7.51563-7.5155,16.35547-16.35534L426.53149,402.645c3.09388-7.46582,4.27417-10.31421,7.36792-17.78l22.10022-5.29907V356.43408l-20.19226-4.84143A273.34146,273.34146,0,0,1,352.83789,441.00293Z"/><path class="cls-9" d="M419.20312,485.34619l-6.40624-14.66211a112.12475,112.12475,0,0,0,57.88671-147.481l14.66211-6.40624a128.127,128.127,0,0,1-66.14258,168.54931Z"/><path class="cls-9" d="M385.05713,494.87256l-2.11426-15.85938a111.88686,111.88686,0,0,0,14.92822-3.03857l4.25782,15.42285A127.8623,127.8623,0,0,1,385.05713,494.87256Z"/></g></svg>